<?xml version="1.0" encoding="UTF-8"?>
<svg width="128" height="128" viewBox="0 0 128 128" xmlns="http://www.w3.org/2000/svg">
  <defs>
    <linearGradient id="grad" x1="0%" y1="0%" x2="100%" y2="100%">
      <stop offset="0%" style="stop-color:#4F46E5;stop-opacity:1" />
      <stop offset="100%" style="stop-color:#7C3AED;stop-opacity:1" />
    </linearGradient>
  </defs>
  <!-- Background circle -->
  <circle cx="64" cy="64" r="60" fill="url(#grad)"/>
  <!-- Document icon -->
  <rect x="38" y="28" width="44" height="56" rx="4" fill="white"/>
  <!-- Document lines -->
  <rect x="46" y="40" width="28" height="4" rx="2" fill="#E0E7FF"/>
  <rect x="46" y="50" width="28" height="4" rx="2" fill="#E0E7FF"/>
  <rect x="46" y="60" width="20" height="4" rx="2" fill="#E0E7FF"/>
  <!-- AI sparkle -->
  <circle cx="90" cy="85" r="18" fill="#10B981"/>
  <path d="M90 77 L91.5 83.5 L98 85 L91.5 86.5 L90 93 L88.5 86.5 L82 85 L88.5 83.5 Z" fill="white"/>
  <!-- India flag colors accent -->
  <rect x="38" y="88" width="14" height="4" rx="1" fill="#FF9933"/>
  <rect x="52" y="88" width="14" height="4" rx="1" fill="#FFFFFF" stroke="#E5E7EB" stroke-width="0.5"/>
  <rect x="66" y="88" width="14" height="4" rx="1" fill="#138808"/>
</svg>
